<svg xmlns="http://www.w3.org/2000/svg" xmlns:xlink="http://www.w3.org/1999/xlink" version="1.1" data-diagram-type="DESCRIPTION" style="width:1646px;height:812px;background:#FFFFFF;" width="1646px" height="812px" viewBox="0 0 1646 812" zoomAndPan="magnify" preserveAspectRatio="none" contentStyleType="text/css"><?plantuml 1.2026.7?><defs/><g font-family="sans-serif" lengthAdjust="spacing"><g class="title" data-source-line="2"><text x="713.162" y="24.966" fill="#1F2937" font-size="14" textLength="212.677" font-weight="700" font-family="Arial">Arquitetura do Abrigo do Wlad</text></g><!--cluster cloudflare--><g class="cluster" data-qualified-name="cloudflare" id="ent0003" data-source-line="23"><path d="M16.5,170.068 L90.027,170.068 A3.75,3.75 0 0 1 92.527,172.568 L99.527,195.136 L901.5,195.136 A2.5,2.5 0 0 1 904,197.636 L904,786.068 A2.5,2.5 0 0 1 901.5,788.568 L16.5,788.568 A2.5,2.5 0 0 1 14,786.068 L14,172.568 A2.5,2.5 0 0 1 16.5,170.068" style="stroke:#CBD5E1;stroke-width:1.5;" fill="#F8FAFC"/><line x1="14" y1="195.136" x2="99.527" y2="195.136" style="stroke:#CBD5E1;stroke-width:1.5;"/><text x="18" y="187.034" fill="#1F2937" font-size="14" textLength="72.527" font-weight="700" font-family="Arial">Cloudflare</text></g><!--cluster app_worker--><g class="cluster" data-qualified-name="cloudflare.app_worker" id="ent0004" data-source-line="24"><path d="M220.5,216.068 L327.739,216.068 A3.75,3.75 0 0 1 330.239,218.568 L337.239,260.204 L653.5,260.204 A2.5,2.5 0 0 1 656,262.704 L656,584.068 A2.5,2.5 0 0 1 653.5,586.568 L220.5,586.568 A2.5,2.5 0 0 1 218,584.068 L218,218.568 A2.5,2.5 0 0 1 220.5,216.068" style="stroke:#CBD5E1;stroke-width:1.5;" fill="#F8FAFC"/><line x1="218" y1="260.204" x2="337.239" y2="260.204" style="stroke:#CBD5E1;stroke-width:1.5;"/><text x="223.783" y="233.034" fill="#1F2937" font-size="14" textLength="102.672" font-weight="700" font-family="Arial">Worker do app</text><text x="222" y="252.102" fill="#1F2937" font-size="14" textLength="106.239" font-weight="700" font-family="Arial">abrigo-do-wlad</text></g><!--cluster admin_app--><g class="cluster" data-qualified-name="cloudflare.admin_app" id="ent0010" data-source-line="32"><path d="M674.5,235.068 L793.289,235.068 A3.75,3.75 0 0 1 795.789,237.568 L802.789,260.136 L885.5,260.136 A2.5,2.5 0 0 1 888,262.636 L888,584.068 A2.5,2.5 0 0 1 885.5,586.568 L674.5,586.568 A2.5,2.5 0 0 1 672,584.068 L672,237.568 A2.5,2.5 0 0 1 674.5,235.068" style="stroke:#CBD5E1;stroke-width:1.5;" fill="#F8FAFC"/><line x1="672" y1="260.136" x2="802.789" y2="260.136" style="stroke:#CBD5E1;stroke-width:1.5;"/><text x="676" y="252.034" fill="#1F2937" font-size="14" textLength="117.789" font-weight="700" font-family="Arial">Admin protegido</text></g><!--cluster google--><g class="cluster" data-qualified-name="google" id="ent0015" data-source-line="40"><path d="M922.5,659.568 L973.375,659.568 A3.75,3.75 0 0 1 975.875,662.068 L982.875,684.636 L1285.5,684.636 A2.5,2.5 0 0 1 1288,687.136 L1288,786.068 A2.5,2.5 0 0 1 1285.5,788.568 L922.5,788.568 A2.5,2.5 0 0 1 920,786.068 L920,662.068 A2.5,2.5 0 0 1 922.5,659.568" style="stroke:#CBD5E1;stroke-width:1.5;" fill="#F8FAFC"/><line x1="920" y1="684.636" x2="982.875" y2="684.636" style="stroke:#CBD5E1;stroke-width:1.5;"/><text x="924" y="676.534" fill="#1F2937" font-size="14" textLength="49.875" font-weight="700" font-family="Arial">Google</text></g><!--cluster cloudinary--><g class="cluster" data-qualified-name="cloudinary" id="ent0018" data-source-line="45"><path d="M1448.5,673.568 L1525.107,673.568 A3.75,3.75 0 0 1 1527.607,676.068 L1534.607,698.636 L1635.5,698.636 A2.5,2.5 0 0 1 1638,701.136 L1638,772.068 A2.5,2.5 0 0 1 1635.5,774.568 L1448.5,774.568 A2.5,2.5 0 0 1 1446,772.068 L1446,676.068 A2.5,2.5 0 0 1 1448.5,673.568" style="stroke:#CBD5E1;stroke-width:1.5;" fill="#F8FAFC"/><line x1="1446" y1="698.636" x2="1534.607" y2="698.636" style="stroke:#CBD5E1;stroke-width:1.5;"/><text x="1450" y="690.534" fill="#1F2937" font-size="14" textLength="75.607" font-weight="700" font-family="Arial">Cloudinary</text></g><!--cluster gmail--><g class="cluster" data-qualified-name="gmail" id="ent0020" data-source-line="49"><path d="M1306.5,664.068 L1348.047,664.068 A3.75,3.75 0 0 1 1350.547,666.568 L1357.547,689.136 L1427.5,689.136 A2.5,2.5 0 0 1 1430,691.636 L1430,781.568 A2.5,2.5 0 0 1 1427.5,784.068 L1306.5,784.068 A2.5,2.5 0 0 1 1304,781.568 L1304,666.568 A2.5,2.5 0 0 1 1306.5,664.068" style="stroke:#CBD5E1;stroke-width:1.5;" fill="#F8FAFC"/><line x1="1304" y1="689.136" x2="1357.547" y2="689.136" style="stroke:#CBD5E1;stroke-width:1.5;"/><text x="1308" y="681.034" fill="#1F2937" font-size="14" textLength="40.547" font-weight="700" font-family="Arial">Gmail</text></g><!--entity candidate--><g class="entity" data-qualified-name="candidate" id="ent0001" data-source-line="20"><ellipse cx="365.781" cy="52.568" rx="8" ry="8" fill="#F1F1F1" style="stroke:#181818;stroke-width:0.5;"/><path d="M365.781,60.568 L365.781,87.568 M352.781,68.568 L378.781,68.568 M365.781,87.568 L352.781,102.568 M365.781,87.568 L378.781,102.568" style="stroke:#181818;stroke-width:0.5;" fill="none"/><text x="308.5" y="119.034" fill="#1F2937" font-size="14" textLength="114.562" font-family="Arial">Pessoa candidata</text></g><!--entity staff--><g class="entity" data-qualified-name="staff" id="ent0002" data-source-line="21"><ellipse cx="756.231" cy="52.568" rx="8" ry="8" fill="#F1F1F1" style="stroke:#181818;stroke-width:0.5;"/><path d="M756.231,60.568 L756.231,87.568 M743.231,68.568 L769.231,68.568 M756.231,87.568 L743.231,102.568 M756.231,87.568 L769.231,102.568" style="stroke:#181818;stroke-width:0.5;" fill="none"/><text x="700" y="119.034" fill="#1F2937" font-size="14" textLength="112.462" font-family="Arial">Equipe do abrigo</text></g><g class="entity" data-qualified-name="GMN39" id="ent0040" data-source-line="74"><path d="M920,510.068 L920,573.186 A0,0 0 0 0 920,573.186 L1203.522,573.186 A0,0 0 0 0 1203.522,573.186 L1203.522,520.068 L1193.522,510.068 L989.848,510.068 L576.205,512.549 L981.848,510.068 L920,510.068 A0,0 0 0 0 920,510.068" style="stroke:#FDBA74;stroke-width:0.5;" fill="#FFF7ED"/><path d="M1193.522,510.068 L1193.522,520.068 L1203.522,520.068 L1193.522,510.068" style="stroke:#FDBA74;stroke-width:0.5;" fill="#FFF7ED"/><text x="926" y="528.965" fill="#1F2937" font-size="13" textLength="262.522" font-family="Arial">Uma repetição com a mesma chave recebe</text><text x="926" y="546.671" fill="#1F2937" font-size="13" textLength="198.549" font-family="Arial">o ID já existente e não cria outro</text><text x="926" y="564.377" fill="#1F2937" font-size="13" textLength="211.315" font-family="Arial">documento nem outra notificação.</text></g><!--entity cron--><g class="entity" data-qualified-name="cloudflare.cron" id="ent0009" data-source-line="31"><rect x="30.5" y="512.568" width="171.031" height="58.136" fill="#FFF" style="stroke:#94A3B8;stroke-width:0.5;" rx="2.5" ry="2.5"/><text x="40.5" y="537.534" fill="#1F2937" font-size="14" textLength="101.836" font-family="Arial">Worker de cron</text><text x="40.5" y="556.602" fill="#1F2937" font-size="14" textLength="151.031" font-family="Arial">abrigo-do-wlad-worker</text></g><!--entity kv--><g class="entity" data-qualified-name="cloudflare.kv" id="ent0014" data-source-line="37"><path d="M195.5,715.568 C195.5,705.568 271.118,705.568 271.118,705.568 C271.118,705.568 346.736,705.568 346.736,715.568 L346.736,762.704 C346.736,772.704 271.118,772.704 271.118,772.704 C271.118,772.704 195.5,772.704 195.5,762.704 L195.5,715.568" style="stroke:#94A3B8;stroke-width:0.5;" fill="#FFF"/><path d="M195.5,715.568 C195.5,725.568 271.118,725.568 271.118,725.568 C271.118,725.568 346.736,725.568 346.736,715.568" style="stroke:#94A3B8;stroke-width:0.5;" fill="none"/><text x="205.5" y="744.534" fill="#1F2937" font-size="14" textLength="88.858" font-family="Arial">Cloudflare KV</text><text x="205.5" y="763.602" fill="#1F2937" font-size="14" textLength="131.236" font-family="Arial">rate limit · hero-dog</text></g><!--entity spa--><g class="entity" data-qualified-name="cloudflare.app_worker.spa" id="ent0005" data-source-line="25"><rect x="315" y="281.068" width="101.634" height="58.136" fill="#FFF" style="stroke:#94A3B8;stroke-width:0.5;" rx="2.5" ry="2.5"/><text x="325" y="306.034" fill="#1F2937" font-size="14" textLength="64.974" font-family="Arial">SPA React</text><text x="325" y="325.102" fill="#1F2937" font-size="14" textLength="81.634" font-family="Arial">Static Assets</text></g><!--entity router--><g class="entity" data-qualified-name="cloudflare.app_worker.router" id="ent0006" data-source-line="26"><rect x="313.5" y="414.068" width="122.69" height="39.068" fill="#FFF" style="stroke:#94A3B8;stroke-width:0.5;" rx="2.5" ry="2.5"/><text x="323.5" y="439.034" fill="#1F2937" font-size="14" textLength="102.69" font-family="Arial">Roteador /api/*</text></g><!--entity adoption--><g class="entity" data-qualified-name="cloudflare.app_worker.adoption" id="ent0007" data-source-line="27"><rect x="386" y="512.568" width="253.505" height="58.136" fill="#FFF" style="stroke:#94A3B8;stroke-width:0.5;" rx="2.5" ry="2.5"/><text x="396" y="537.534" fill="#1F2937" font-size="14" textLength="88.088" font-family="Arial">Candidaturas</text><text x="396" y="556.602" fill="#1F2937" font-size="14" textLength="233.505" font-family="Arial">validação · sanitização · criptografia</text></g><!--entity hero_api--><g class="entity" data-qualified-name="cloudflare.app_worker.hero_api" id="ent0008" data-source-line="28"><rect x="234.5" y="512.568" width="132.588" height="58.136" fill="#FFF" style="stroke:#94A3B8;stroke-width:0.5;" rx="2.5" ry="2.5"/><text x="244.5" y="537.534" fill="#1F2937" font-size="14" textLength="78.568" font-family="Arial">Consulta do</text><text x="244.5" y="556.602" fill="#1F2937" font-size="14" textLength="112.588" font-family="Arial">cão em destaque</text></g><!--entity access--><g class="entity" data-qualified-name="cloudflare.admin_app.access" id="ent0011" data-source-line="33"><rect x="688.5" y="281.068" width="135.486" height="58.136" fill="#FFF" style="stroke:#94A3B8;stroke-width:0.5;" rx="2.5" ry="2.5"/><text x="698.5" y="306.034" fill="#1F2937" font-size="14" textLength="115.486" font-family="Arial">Cloudflare Access</text><text x="698.5" y="325.102" fill="#1F2937" font-size="14" textLength="68.824" font-family="Arial">JWT + MFA</text></g><!--entity admin_spa--><g class="entity" data-qualified-name="cloudflare.admin_app.admin_spa" id="ent0012" data-source-line="34"><rect x="688.5" y="414.068" width="143.2" height="39.068" fill="#FFF" style="stroke:#94A3B8;stroke-width:0.5;" rx="2.5" ry="2.5"/><text x="698.5" y="439.034" fill="#1F2937" font-size="14" textLength="123.2" font-family="Arial">SPA administrativa</text></g><!--entity admin_worker--><g class="entity" data-qualified-name="cloudflare.admin_app.admin_worker" id="ent0013" data-source-line="35"><rect x="720" y="512.568" width="152.453" height="58.136" fill="#FFF" style="stroke:#94A3B8;stroke-width:0.5;" rx="2.5" ry="2.5"/><text x="730" y="537.534" fill="#1F2937" font-size="14" textLength="93.884" font-family="Arial">Worker admin</text><text x="730" y="556.602" fill="#1F2937" font-size="14" textLength="132.453" font-family="Arial">RBAC · CRUD · mídia</text></g><!--entity recaptcha--><g class="entity" data-qualified-name="google.recaptcha" id="ent0016" data-source-line="41"><rect x="1156.5" y="719.568" width="114.654" height="39.068" fill="#FFF" style="stroke:#94A3B8;stroke-width:0.5;" rx="2.5" ry="2.5"/><text x="1166.5" y="744.534" fill="#1F2937" font-size="14" textLength="94.654" font-family="Arial">reCAPTCHA v3</text></g><!--entity firestore--><g class="entity" data-qualified-name="google.firestore" id="ent0017" data-source-line="42"><path d="M936,715.568 C936,705.568 1036.818,705.568 1036.818,705.568 C1036.818,705.568 1137.635,705.568 1137.635,715.568 L1137.635,762.704 C1137.635,772.704 1036.818,772.704 1036.818,772.704 C1036.818,772.704 936,772.704 936,762.704 L936,715.568" style="stroke:#94A3B8;stroke-width:0.5;" fill="#FFF"/><path d="M936,715.568 C936,725.568 1036.818,725.568 1036.818,725.568 C1036.818,725.568 1137.635,725.568 1137.635,715.568" style="stroke:#94A3B8;stroke-width:0.5;" fill="none"/><text x="946" y="744.534" fill="#1F2937" font-size="14" textLength="58.464" font-family="Arial">Firestore</text><text x="946" y="763.602" fill="#1F2937" font-size="14" textLength="181.635" font-family="Arial">dogs · adoption_application</text></g><!--entity images--><g class="entity" data-qualified-name="cloudinary.images" id="ent0019" data-source-line="46"><rect x="1462" y="719.568" width="159.999" height="39.068" fill="#FFF" style="stroke:#94A3B8;stroke-width:0.5;" rx="2.5" ry="2.5"/><text x="1472" y="744.534" fill="#1F2937" font-size="14" textLength="139.999" font-family="Arial">Imagens dos animais</text></g><!--entity email--><g class="entity" data-qualified-name="gmail.email" id="ent0021" data-source-line="50"><rect x="1320" y="710.068" width="93.822" height="58.136" fill="#FFF" style="stroke:#94A3B8;stroke-width:0.5;" rx="2.5" ry="2.5"/><text x="1330" y="735.034" fill="#1F2937" font-size="14" textLength="73.822" font-family="Arial">Notificação</text><text x="1330" y="754.102" fill="#1F2937" font-size="14" textLength="67.074" font-family="Arial">por e-mail</text></g><g class="link" data-entity-1="ent0001" data-entity-2="ent0005" id="lnk22" data-link-type="dependency"><polygon points="366,280.91,370,271.91,366,275.91,362,271.91,366,280.91" fill="#64748B" style="stroke:#64748B;stroke-width:1;stroke-linejoin:miter;stroke-miterlimit:10;"/><path d="M366,123.161 C366,168.042 366,236.051 366,275.91" style="stroke:#64748B;stroke-width:1.2;" fill="none"/><text x="368" y="156.965" fill="#1F2937" font-size="13" textLength="196.066" font-family="Arial">navega e preenche o formulário</text></g><g class="link" data-entity-1="ent0002" data-entity-2="ent0011" id="lnk23" data-link-type="dependency"><polygon points="756,280.91,760,271.91,756,275.91,752,271.91,756,280.91" fill="#64748B" style="stroke:#64748B;stroke-width:1;stroke-linejoin:miter;stroke-miterlimit:10;"/><path d="M756,123.161 C756,168.042 756,236.051 756,275.91" style="stroke:#64748B;stroke-width:1.2;" fill="none"/><text x="758" y="156.965" fill="#1F2937" font-size="13" textLength="56.966" font-family="Arial">autentica</text></g><g class="link" data-entity-1="ent0011" data-entity-2="ent0012" id="lnk24" data-link-type="dependency"><polygon points="759.388,413.982,763.09,404.856,759.224,408.985,755.094,405.119,759.388,413.982" fill="#64748B" style="stroke:#64748B;stroke-width:1;stroke-linejoin:miter;stroke-miterlimit:10;"/><path d="M756.928,339.248 C757.685,362.241 758.568,389.076 759.224,408.985" style="stroke:#64748B;stroke-width:1.2;" fill="none"/><text x="761" y="381.965" fill="#1F2937" font-size="13" textLength="134.056" font-family="Arial">identidade autorizada</text></g><g class="link" data-entity-1="ent0012" data-entity-2="ent0013" id="lnk25" data-link-type="dependency"><polygon points="786.367,512.203,787.26,502.395,784.759,507.469,779.685,504.968,786.367,512.203" fill="#64748B" style="stroke:#64748B;stroke-width:1;stroke-linejoin:miter;stroke-miterlimit:10;"/><path d="M766.436,453.519 C771.978,469.835 778.447,488.884 784.759,507.469" style="stroke:#64748B;stroke-width:1.2;" fill="none"/><text x="782" y="486.965" fill="#1F2937" font-size="13" textLength="162.968" font-family="Arial">/api/session · /api/admin/*</text></g><g class="link" data-entity-1="ent0013" data-entity-2="ent0017" id="lnk26" data-link-type="dependency"><polygon points="1042.389,705.463,1047.291,696.921,1042.902,700.49,1039.334,696.101,1042.389,705.463" fill="#64748B" style="stroke:#64748B;stroke-width:1;stroke-linejoin:miter;stroke-miterlimit:10;"/><path d="M859.459,570.589 C875.953,576.828 893.898,582.724 911,586.568 C922.308,589.11 1006.502,586.687 1015,594.568 C1044.939,622.332 1046.309,667.448 1042.902,700.49" style="stroke:#64748B;stroke-width:1.2;" fill="none"/><text x="1065.567" y="619.465" fill="#1F2937" font-size="13" textLength="99.203" font-family="Arial">conta de serviço</text><text x="1044" y="637.171" fill="#1F2937" font-size="13" textLength="142.337" font-family="Arial">CRUD + descriptografia</text></g><g class="link" data-entity-1="ent0013" data-entity-2="ent0019" id="lnk27" data-link-type="dependency"><polygon points="1521.167,719.302,1516.933,710.409,1517.369,716.049,1511.729,716.485,1521.167,719.302" fill="#64748B" style="stroke:#64748B;stroke-width:1;stroke-linejoin:miter;stroke-miterlimit:10;"/><path d="M857.833,570.592 C874.736,577.038 893.286,583.033 911,586.568 C972.262,598.792 1130.19,585.515 1192,594.568 C1247.096,602.638 1383.75,635.575 1434,659.568 C1467.05,675.348 1496.646,698.299 1517.369,716.049" style="stroke:#64748B;stroke-width:1.2;" fill="none"/><text x="1414" y="628.465" fill="#1F2937" font-size="13" textLength="218.231" font-family="Arial">upload assinado · exclusão validada</text></g><g class="link" data-entity-1="ent0005" data-entity-2="ent0006" id="lnk28" data-link-type="dependency"><polygon points="313.048,420.512,306.345,413.296,308.45,418.546,303.2,420.652,313.048,420.512" fill="#64748B" style="stroke:#64748B;stroke-width:1;stroke-linejoin:miter;stroke-miterlimit:10;"/><path d="M314.881,327.645 C301.531,334.558 288.73,344.095 281,357.068 C272.127,371.958 271.21,381.764 281,396.068 C288.713,407.336 295.854,413.161 308.45,418.546" style="stroke:#64748B;stroke-width:1.2;" fill="none"/><text x="283" y="381.965" fill="#1F2937" font-size="13" textLength="112.255" font-family="Arial">GET /api/hero-dog</text></g><g class="link" data-entity-1="ent0006" data-entity-2="ent0008" id="lnk29" data-link-type="dependency"><polygon points="320.802,512.203,329.233,507.113,323.664,508.103,322.674,502.534,320.802,512.203" fill="#64748B" style="stroke:#64748B;stroke-width:1;stroke-linejoin:miter;stroke-miterlimit:10;"/><path d="M361.77,453.519 C350.379,469.835 336.638,489.518 323.664,508.103" style="stroke:#64748B;stroke-width:1.2;" fill="none"/></g><g class="link" data-entity-1="ent0008" data-entity-2="ent0014" id="lnk30" data-link-type="dependency"><polygon points="266.69,705.547,269.806,696.204,266.209,700.57,261.843,696.973,266.69,705.547" fill="#64748B" style="stroke:#64748B;stroke-width:1;stroke-linejoin:miter;stroke-miterlimit:10;"/><path d="M282.016,570.621 C277.914,578.091 274.161,586.372 272,594.568 C262.216,631.667 263.361,671.084 266.209,700.57" style="stroke:#64748B;stroke-width:1.2;" fill="none"/><text x="274" y="628.465" fill="#1F2937" font-size="13" textLength="70.707" font-family="Arial">lê hero-dog</text></g><g class="link" data-entity-1="ent0005" data-entity-2="ent0006" id="lnk31" data-link-type="dependency"><polygon points="388.965,413.768,397.044,408.136,391.552,409.489,390.198,403.997,388.965,413.768" fill="#64748B" style="stroke:#64748B;stroke-width:1;stroke-linejoin:miter;stroke-miterlimit:10;"/><path d="M388.659,339.174 C392.093,344.806 395.115,350.897 397,357.068 C402.064,373.645 401.644,379.368 397,396.068 C395.295,402.198 394.84,404.05 391.552,409.489" style="stroke:#64748B;stroke-width:1.2;" fill="none"/><text x="403.897" y="372.965" fill="#1F2937" font-size="13" textLength="162.266" font-family="Arial">POST /api/adoption/create</text><text x="403" y="390.671" fill="#1F2937" font-size="13" textLength="164.06" font-family="Arial">Idempotency-Key: UUID v4</text></g><g class="link" data-entity-1="ent0006" data-entity-2="ent0007" id="lnk32" data-link-type="dependency"><polygon points="476.435,512.481,471.734,503.827,472.469,509.436,466.86,510.171,476.435,512.481" fill="#64748B" style="stroke:#64748B;stroke-width:1;stroke-linejoin:miter;stroke-miterlimit:10;"/><path d="M399.354,453.275 C420.71,469.679 448.101,490.718 472.469,509.436" style="stroke:#64748B;stroke-width:1.2;" fill="none"/></g><g class="link" data-entity-1="ent0007" data-entity-2="ent0014" id="lnk33" data-link-type="dependency"><polygon points="304.092,705.186,313.139,701.294,307.487,701.515,307.266,695.862,304.092,705.186" fill="#64748B" style="stroke:#64748B;stroke-width:1;stroke-linejoin:miter;stroke-miterlimit:10;"/><path d="M403.37,570.732 C390.803,577.137 378.952,584.977 369,594.568 C349.329,613.524 360.254,628.263 346,651.568 C334.281,670.728 321.69,686.156 307.487,701.515" style="stroke:#64748B;stroke-width:1.2;" fill="none"/><text x="371" y="628.465" fill="#1F2937" font-size="13" textLength="54.977" font-family="Arial">rate limit</text></g><g class="link" data-entity-1="ent0007" data-entity-2="ent0016" id="lnk34" data-link-type="dependency"><polygon points="1204.336,719.49,1203.274,709.699,1201.825,715.167,1196.357,713.717,1204.336,719.49" fill="#64748B" style="stroke:#64748B;stroke-width:1;stroke-linejoin:miter;stroke-miterlimit:10;"/><path d="M599.131,570.631 C621.35,576.869 645.381,582.754 668,586.568 C683.255,589.14 794.431,585.549 807,594.568 C829.196,610.493 807.55,636.002 830,651.568 C858.955,671.644 1115.194,644.409 1147,659.568 C1173.364,672.133 1190.806,696.199 1201.825,715.167" style="stroke:#64748B;stroke-width:1.2;" fill="none"/><text x="832" y="628.465" fill="#1F2937" font-size="13" textLength="109.746" font-family="Arial">valida reCAPTCHA</text></g><g class="link" data-entity-1="ent0007" data-entity-2="ent0017" id="lnk35" data-link-type="dependency"><polygon points="995.769,705.386,990.739,696.918,991.69,702.495,986.113,703.446,995.769,705.386" fill="#64748B" style="stroke:#64748B;stroke-width:1;stroke-linejoin:miter;stroke-miterlimit:10;"/><path d="M598.757,570.703 C610.586,577.207 621.809,585.082 631,594.568 C650.01,614.187 631.599,635.932 654,651.568 C677.154,667.729 880.935,651.519 908,659.568 C939.788,669.022 967.579,685.409 991.69,702.495" style="stroke:#64748B;stroke-width:1.2;" fill="none"/><text x="668.974" y="610.465" fill="#1F2937" font-size="13" textLength="123.266" font-family="Arial">CREATE candidatura</text><text x="663.124" y="628.171" fill="#1F2937" font-size="13" textLength="134.966" font-family="Arial">ID = Idempotency-Key</text><text x="656" y="645.877" fill="#1F2937" font-size="13" textLength="149.214" font-family="Arial">precondição exists: false</text></g><g class="link" data-entity-1="ent0007" data-entity-2="ent0021" id="lnk36" data-link-type="dependency"><polygon points="1348.759,709.719,1346.61,700.107,1345.78,705.702,1340.185,704.872,1348.759,709.719" fill="#64748B" style="stroke:#64748B;stroke-width:1;stroke-linejoin:miter;stroke-miterlimit:10;"/><path d="M597.437,570.62 C620.105,577.024 644.777,582.991 668,586.568 C683.106,588.895 930.732,585.452 943,594.568 C964.434,610.495 940.528,635.693 962,651.568 C976.746,662.47 1275.227,652.154 1292,659.568 C1315.618,670.008 1332.459,687.74 1345.78,705.702" style="stroke:#64748B;stroke-width:1.2;" fill="none"/><text x="964" y="628.465" fill="#1F2937" font-size="13" textLength="45.305" font-family="Arial">notifica</text></g><g class="link" data-entity-1="ent0009" data-entity-2="ent0017" id="lnk37" data-link-type="dependency"><polygon points="996.105,705.416,991.097,696.936,992.033,702.514,986.455,703.451,996.105,705.416" fill="#64748B" style="stroke:#64748B;stroke-width:1;stroke-linejoin:miter;stroke-miterlimit:10;"/><path d="M168.612,570.633 C182.951,577.036 198.746,583 214,586.568 C237.061,591.962 408.05,580.362 427,594.568 C448.366,610.586 424.473,635.767 446,651.568 C466.694,666.757 883.343,652.425 908,659.568 C939.98,668.833 967.906,685.323 992.033,702.514" style="stroke:#64748B;stroke-width:1.2;" fill="none"/><text x="495.827" y="619.465" fill="#1F2937" font-size="13" textLength="81.809" font-family="Arial">seleciona cão</text><text x="448" y="637.171" fill="#1F2937" font-size="13" textLength="177.463" font-family="Arial">cleanup LGPD com kill switch</text></g><g class="link" data-entity-1="ent0009" data-entity-2="ent0014" id="lnk38" data-link-type="dependency"><polygon points="209.706,705.401,204.369,697.123,205.523,702.661,199.985,703.816,209.706,705.401" fill="#64748B" style="stroke:#64748B;stroke-width:1;stroke-linejoin:miter;stroke-miterlimit:10;"/><path d="M119.696,570.764 C123.895,594.195 132.572,627.476 150,651.568 C165.589,673.118 184.039,688.59 205.523,702.661" style="stroke:#64748B;stroke-width:1.2;" fill="none"/><text x="152" y="628.465" fill="#1F2937" font-size="13" textLength="107.445" font-family="Arial">atualiza hero-dog</text></g><?plantuml-src XLPDRnit4BtlhvYwjmIAuTYj7GCjiFfodRIfOSlrHK0mvevMh7R93ScLunJvCK4F0Ghqt7lrnpeaLwkLB3I-c4k--NfyCzGtbS6yH2ZmKTSER4aE5IPEke8WDUzhwSZL1Y7JaDuRcMk_kYimInAxaAf2WoNSerZaHjSg6-X26_Xs7Fuw23l7J3z8bSCC2qkT4w7BIYjIxiOzSan3WZF8YouaendMXHjhvTvYwVEIMEm_R-8VZL--EZxjG59Zz4Dp-Ft9wSbPV_TmCfTYeSXQE7hnidDOSMsOKr-RZ4pZOT0VVZSwsWDwmiFPE1qFzbMxvU_LINhSFziB-ogp6JgyHql_xx15VTMVqcxRrtZOJqzFTX5x_9oEXac2ml7dmHKJgH44gapws0U0jlsYDMh4-gh8Amg3jWBAEfpDagIX50u6XQwpMO66efFs4_v805hOdJOBCi5NLKrLTDZBTE-1nHeiUV_TGqHvIzYm30StLobS4wSrLJSEdHIGMalEnemgtCLVCmUiQ0E7MCd3Pm76T3WokyX1KpGtaPsg9HRyiVgo-bF3l_-0HIMT_BZP44PMJkS6Pp9ona4g9xLwubOhovhtZJbLmbkJRmGcxtqTYPgJqUyuExRyb2HRnckkYEDfjKjMBv8KsJOXTCjocfLIGMMu_5nckacHzpXIzPJMpTr1AWHhOgfUtqtWEVmoJgDjsDrt6y6hjCxmRIon4sZFRJJrXFEfkkwd0y_buFfswF-NgxypsVKGwmkyGDiPMyc--MsgE3118Klfl1FF9XEK1pUBPVAfez0BhNbWXPCyB0CHdVmC3TAhoU2d59R7KIeai79YZbi9ZANX2zI6feeZMHzsVVsUta8AzElWORR6RcKIIf0ApUEcLyBdRaQN9UELPVKmAKgMAAFKfT-tszNnOH6BywjTJs-rapFEB4XugYhk2Ugr9kHNtbtR-z3h_UWx2iv1uP9o168z4Ian9z0mqwQiYzLd8tKI9a70Hvcm2NABAMvFJ9gjSBhM1GDaviypP6qpLXjkhep1BMA3RqR1UMnXoywOMyzv-0wOmsV95jORjyIpfU0N1tqRMJ9BkVh2zGVHFVUTs6tbfsuYqUoZhWgD6NDb-QAoC0JeWoXgwtiwZWikO9rwd35iTZ6Qn4JNmaoQ8uzgMt-z2BkB9TiLgxzQBITFtLxzUZDP4n2LToWCyRLDrML6VEbCltZilQ77SxYzlHp2ygGRk9rMwyKcyAQTjW_RLc1CB1VQTjb6TfaVN8_IoQXzKNYuSe93-05sicH1SW3Dg3XYwGEF57lU_0hPSX-awbNP29erQ_P4jbIGO1j-t8BWHK6ewWf-lhWQ-hw0XImAi0-IQzfu21HmdbpWH-nSW7zBWOVlt86UTOVzRUbvgCWrYNlF22LPtcUobk6N4jqJGpLmvR-lFiVYMFx4BQM24VzG0huTe_sSqQ8k-LI3ugV2xs9RQuZn8Y6LXTSz-Gy0?></g></svg>