<svg xmlns="http://www.w3.org/2000/svg" xmlns:xlink="http://www.w3.org/1999/xlink" contentStyleType="text/css" data-diagram-type="DESCRIPTION" height="717px" preserveAspectRatio="none" style="width:1119px;height:717px;background:#FFFFFF;" version="1.1" viewBox="0 0 1119 717" width="1119px" zoomAndPan="magnify"><?plantuml 1.2026.6?><defs/><g><g class="title" data-source-line="2"><text fill="#1F2937" font-family="Arial" font-size="14" font-weight="700" lengthAdjust="spacing" textLength="212.6768" x="449.6616" y="24.9659">Arquitetura do Abrigo do Wlad</text></g><!--cluster cloudflare--><g class="cluster" data-qualified-name="cloudflare" data-source-line="22" id="ent0002"><path d="M16.5,170.0679 L90.0267,170.0679 A3.75,3.75 0 0 1 92.5267,172.5679 L99.5267,195.1358 L630.5,195.1358 A2.5,2.5 0 0 1 633,197.6358 L633,706.5679 A2.5,2.5 0 0 1 630.5,709.0679 L16.5,709.0679 A2.5,2.5 0 0 1 14,706.5679 L14,172.5679 A2.5,2.5 0 0 1 16.5,170.0679" fill="#F8FAFC" style="stroke:#CBD5E1;stroke-width:1.5;"/><line style="stroke:#CBD5E1;stroke-width:1.5;" x1="14" x2="99.5267" y1="195.1358" y2="195.1358"/><text fill="#1F2937" font-family="Arial" font-size="14" font-weight="700" lengthAdjust="spacing" textLength="72.5267" x="18" y="187.0339">Cloudflare</text></g><!--cluster app_worker--><g class="cluster" data-qualified-name="cloudflare.app_worker" data-source-line="23" id="ent0003"><path d="M205.5,200.0679 L312.7386,200.0679 A3.75,3.75 0 0 1 315.2386,202.5679 L322.2386,244.2038 L622.5,244.2038 A2.5,2.5 0 0 1 625,246.7038 L625,524.0679 A2.5,2.5 0 0 1 622.5,526.5679 L205.5,526.5679 A2.5,2.5 0 0 1 203,524.0679 L203,202.5679 A2.5,2.5 0 0 1 205.5,200.0679" fill="#F8FAFC" style="stroke:#CBD5E1;stroke-width:1.5;"/><line style="stroke:#CBD5E1;stroke-width:1.5;" x1="203" x2="322.2386" y1="244.2038" y2="244.2038"/><text fill="#1F2937" font-family="Arial" font-size="14" font-weight="700" lengthAdjust="spacing" textLength="102.6721" x="208.7832" y="217.0339">Worker do app</text><text fill="#1F2937" font-family="Arial" font-size="14" font-weight="700" lengthAdjust="spacing" textLength="106.2386" x="207" y="236.1018">abrigo-do-wlad</text></g><!--cluster google--><g class="cluster" data-qualified-name="google" data-source-line="34" id="ent0010"><path d="M643.5,604.0679 L694.3748,604.0679 A3.75,3.75 0 0 1 696.8748,606.5679 L703.8748,629.1358 L990.5,629.1358 A2.5,2.5 0 0 1 993,631.6358 L993,706.5679 A2.5,2.5 0 0 1 990.5,709.0679 L643.5,709.0679 A2.5,2.5 0 0 1 641,706.5679 L641,606.5679 A2.5,2.5 0 0 1 643.5,604.0679" fill="#F8FAFC" style="stroke:#CBD5E1;stroke-width:1.5;"/><line style="stroke:#CBD5E1;stroke-width:1.5;" x1="641" x2="703.8748" y1="629.1358" y2="629.1358"/><text fill="#1F2937" font-family="Arial" font-size="14" font-weight="700" lengthAdjust="spacing" textLength="49.8748" x="645" y="621.0339">Google</text></g><!--cluster gmail--><g class="cluster" data-qualified-name="gmail" data-source-line="39" id="ent0013"><path d="M1003.5,608.5679 L1045.0473,608.5679 A3.75,3.75 0 0 1 1047.5473,611.0679 L1054.5473,633.6358 L1108.5,633.6358 A2.5,2.5 0 0 1 1111,636.1358 L1111,702.0679 A2.5,2.5 0 0 1 1108.5,704.5679 L1003.5,704.5679 A2.5,2.5 0 0 1 1001,702.0679 L1001,611.0679 A2.5,2.5 0 0 1 1003.5,608.5679" fill="#F8FAFC" style="stroke:#CBD5E1;stroke-width:1.5;"/><line style="stroke:#CBD5E1;stroke-width:1.5;" x1="1001" x2="1054.5473" y1="633.6358" y2="633.6358"/><text fill="#1F2937" font-family="Arial" font-size="14" font-weight="700" lengthAdjust="spacing" textLength="40.5473" x="1005" y="625.5339">Gmail</text></g><!--entity candidate--><g class="entity" data-qualified-name="candidate" data-source-line="20" id="ent0001"><ellipse cx="314.7808" cy="52.5679" fill="#F1F1F1" rx="8" ry="8" style="stroke:#181818;stroke-width:0.5;"/><path d="M314.7808,60.5679 L314.7808,87.5679 M301.7808,68.5679 L327.7808,68.5679 M314.7808,87.5679 L301.7808,102.5679 M314.7808,87.5679 L327.7808,102.5679" fill="none" style="stroke:#181818;stroke-width:0.5;"/><text fill="#1F2937" font-family="Arial" font-size="14" lengthAdjust="spacing" textLength="114.5616" x="257.5" y="119.0339">Pessoa candidata</text></g><g class="entity" data-qualified-name="GMN27" data-source-line="59" id="ent0028"><path d="M641,458.0679 L641,485.5679 L617.043,489.5679 L641,493.5679 L641,521.186 A0,0 0 0 0 641,521.186 L924.5222,521.186 A0,0 0 0 0 924.5222,521.186 L924.5222,468.0679 L914.5222,458.0679 L641,458.0679 A0,0 0 0 0 641,458.0679" fill="#FFF7ED" style="stroke:#FDBA74;stroke-width:0.5;"/><path d="M914.5222,458.0679 L914.5222,468.0679 L924.5222,468.0679 L914.5222,458.0679" fill="#FFF7ED" style="stroke:#FDBA74;stroke-width:0.5;"/><text fill="#1F2937" font-family="Arial" font-size="13" lengthAdjust="spacing" textLength="262.5222" x="647" y="476.9649">Uma repeti&#231;&#227;o com a mesma chave recebe</text><text fill="#1F2937" font-family="Arial" font-size="13" lengthAdjust="spacing" textLength="198.5491" x="647" y="494.6709">o ID j&#225; existente e n&#227;o cria outro</text><text fill="#1F2937" font-family="Arial" font-size="13" lengthAdjust="spacing" textLength="211.3152" x="647" y="512.377">documento nem outra notifica&#231;&#227;o.</text></g><!--entity cron--><g class="entity" data-qualified-name="cloudflare.cron" data-source-line="30" id="ent0008"><rect fill="#FFFFFF" height="58.1358" rx="2.5" ry="2.5" style="stroke:#94A3B8;stroke-width:0.5;" width="171.0314" x="22.5" y="460.5679"/><text fill="#1F2937" font-family="Arial" font-size="14" lengthAdjust="spacing" textLength="101.8356" x="32.5" y="485.5339">Worker de cron</text><text fill="#1F2937" font-family="Arial" font-size="14" lengthAdjust="spacing" textLength="151.0314" x="32.5" y="504.6018">abrigo-do-wlad-worker</text></g><!--entity kv--><g class="entity" data-qualified-name="cloudflare.kv" data-source-line="31" id="ent0009"><path d="M202.5,644.0679 C202.5,634.0679 278.1178,634.0679 278.1178,634.0679 C278.1178,634.0679 353.7355,634.0679 353.7355,644.0679 L353.7355,691.2038 C353.7355,701.2038 278.1178,701.2038 278.1178,701.2038 C278.1178,701.2038 202.5,701.2038 202.5,691.2038 L202.5,644.0679" fill="#FFFFFF" style="stroke:#94A3B8;stroke-width:0.5;"/><path d="M202.5,644.0679 C202.5,654.0679 278.1178,654.0679 278.1178,654.0679 C278.1178,654.0679 353.7355,654.0679 353.7355,644.0679" fill="none" style="stroke:#94A3B8;stroke-width:0.5;"/><text fill="#1F2937" font-family="Arial" font-size="14" lengthAdjust="spacing" textLength="88.8577" x="212.5" y="673.0339">Cloudflare KV</text><text fill="#1F2937" font-family="Arial" font-size="14" lengthAdjust="spacing" textLength="131.2355" x="212.5" y="692.1018">rate limit &#183; hero-dog</text></g><!--entity spa--><g class="entity" data-qualified-name="cloudflare.app_worker.spa" data-source-line="24" id="ent0004"><rect fill="#FFFFFF" height="58.1358" rx="2.5" ry="2.5" style="stroke:#94A3B8;stroke-width:0.5;" width="101.6337" x="264" y="249.0679"/><text fill="#1F2937" font-family="Arial" font-size="14" lengthAdjust="spacing" textLength="64.9738" x="274" y="274.0339">SPA React</text><text fill="#1F2937" font-family="Arial" font-size="14" lengthAdjust="spacing" textLength="81.6337" x="274" y="293.1018">Static Assets</text></g><!--entity router--><g class="entity" data-qualified-name="cloudflare.app_worker.router" data-source-line="25" id="ent0005"><rect fill="#FFFFFF" height="39.0679" rx="2.5" ry="2.5" style="stroke:#94A3B8;stroke-width:0.5;" width="122.6896" x="290.5" y="382.0679"/><text fill="#1F2937" font-family="Arial" font-size="14" lengthAdjust="spacing" textLength="102.6896" x="300.5" y="407.0339">Roteador /api/*</text></g><!--entity adoption--><g class="entity" data-qualified-name="cloudflare.app_worker.adoption" data-source-line="26" id="ent0006"><rect fill="#FFFFFF" height="58.1358" rx="2.5" ry="2.5" style="stroke:#94A3B8;stroke-width:0.5;" width="253.5051" x="363" y="460.5679"/><text fill="#1F2937" font-family="Arial" font-size="14" lengthAdjust="spacing" textLength="88.0877" x="373" y="485.5339">Candidaturas</text><text fill="#1F2937" font-family="Arial" font-size="14" lengthAdjust="spacing" textLength="233.5051" x="373" y="504.6018">valida&#231;&#227;o &#183; sanitiza&#231;&#227;o &#183; criptografia</text></g><!--entity hero_api--><g class="entity" data-qualified-name="cloudflare.app_worker.hero_api" data-source-line="27" id="ent0007"><rect fill="#FFFFFF" height="58.1358" rx="2.5" ry="2.5" style="stroke:#94A3B8;stroke-width:0.5;" width="132.5876" x="211.5" y="460.5679"/><text fill="#1F2937" font-family="Arial" font-size="14" lengthAdjust="spacing" textLength="78.5677" x="221.5" y="485.5339">Consulta do</text><text fill="#1F2937" font-family="Arial" font-size="14" lengthAdjust="spacing" textLength="112.5876" x="221.5" y="504.6018">c&#227;o em destaque</text></g><!--entity recaptcha--><g class="entity" data-qualified-name="google.recaptcha" data-source-line="35" id="ent0011"><rect fill="#FFFFFF" height="39.0679" rx="2.5" ry="2.5" style="stroke:#94A3B8;stroke-width:0.5;" width="114.6536" x="869.5" y="648.0679"/><text fill="#1F2937" font-family="Arial" font-size="14" lengthAdjust="spacing" textLength="94.6536" x="879.5" y="673.0339">reCAPTCHA v3</text></g><!--entity firestore--><g class="entity" data-qualified-name="google.firestore" data-source-line="36" id="ent0012"><path d="M649,644.0679 C649,634.0679 749.8177,634.0679 749.8177,634.0679 C749.8177,634.0679 850.6353,634.0679 850.6353,644.0679 L850.6353,691.2038 C850.6353,701.2038 749.8177,701.2038 749.8177,701.2038 C749.8177,701.2038 649,701.2038 649,691.2038 L649,644.0679" fill="#FFFFFF" style="stroke:#94A3B8;stroke-width:0.5;"/><path d="M649,644.0679 C649,654.0679 749.8177,654.0679 749.8177,654.0679 C749.8177,654.0679 850.6353,654.0679 850.6353,644.0679" fill="none" style="stroke:#94A3B8;stroke-width:0.5;"/><text fill="#1F2937" font-family="Arial" font-size="14" lengthAdjust="spacing" textLength="58.4638" x="659" y="673.0339">Firestore</text><text fill="#1F2937" font-family="Arial" font-size="14" lengthAdjust="spacing" textLength="181.6353" x="659" y="692.1018">dogs &#183; adoption_application</text></g><!--entity email--><g class="entity" data-qualified-name="gmail.email" data-source-line="40" id="ent0014"><rect fill="#FFFFFF" height="58.1358" rx="2.5" ry="2.5" style="stroke:#94A3B8;stroke-width:0.5;" width="93.8217" x="1009" y="638.5679"/><text fill="#1F2937" font-family="Arial" font-size="14" lengthAdjust="spacing" textLength="73.8217" x="1019" y="663.5339">Notifica&#231;&#227;o</text><text fill="#1F2937" font-family="Arial" font-size="14" lengthAdjust="spacing" textLength="67.0737" x="1019" y="682.6018">por e-mail</text></g><g class="link" data-entity-1="ent0001" data-entity-2="ent0004" data-link-type="dependency" id="lnk15"><polygon fill="#64748B" points="315,248.7867,319,239.7867,315,243.7867,311,239.7867,315,248.7867" style="stroke:#64748B;stroke-width:1;stroke-linejoin:miter;stroke-miterlimit:10;"/><path d="M315,123.5232 C315,160.6563 315,210.6779 315,243.7867" fill="none" style="stroke:#64748B;stroke-width:1.2;"/><text fill="#1F2937" font-family="Arial" font-size="13" lengthAdjust="spacing" textLength="196.0661" x="317" y="156.9649">navega e preenche o formul&#225;rio</text></g><g class="link" data-entity-1="ent0004" data-entity-2="ent0005" data-link-type="dependency" id="lnk16"><polygon fill="#64748B" points="290.0479,388.5119,283.345,381.2959,285.4504,386.5463,280.2,388.6518,290.0479,388.5119" style="stroke:#64748B;stroke-width:1;stroke-linejoin:miter;stroke-miterlimit:10;"/><path d="M271.1601,307.1122 C265.8461,312.4133 261.1808,318.4136 258,325.0679 C250.5247,340.7065 248.2099,349.7641 258,364.0679 C265.7126,375.3364 272.8544,381.1609 285.4504,386.5463" fill="none" style="stroke:#64748B;stroke-width:1.2;"/><text fill="#1F2937" font-family="Arial" font-size="13" lengthAdjust="spacing" textLength="112.2551" x="260" y="349.9649">GET /api/hero-dog</text></g><g class="link" data-entity-1="ent0005" data-entity-2="ent0007" data-link-type="dependency" id="lnk17"><polygon fill="#64748B" points="302.1856,460.4604,311.0878,456.2472,305.4468,456.6703,305.0237,451.0293,302.1856,460.4604" style="stroke:#64748B;stroke-width:1;stroke-linejoin:miter;stroke-miterlimit:10;"/><path d="M335.9431,421.2286 C326.0813,432.6897 316.5209,443.8003 305.4468,456.6703" fill="none" style="stroke:#64748B;stroke-width:1.2;"/></g><g class="link" data-entity-1="ent0007" data-entity-2="ent0009" data-link-type="dependency" id="lnk18"><polygon fill="#64748B" points="278,633.8713,282,624.8713,278,628.8713,274,624.8713,278,633.8713" style="stroke:#64748B;stroke-width:1;stroke-linejoin:miter;stroke-miterlimit:10;"/><path d="M278,518.8454 C278,550.2313 278,595.8082 278,628.8713" fill="none" style="stroke:#64748B;stroke-width:1.2;"/><text fill="#1F2937" font-family="Arial" font-size="13" lengthAdjust="spacing" textLength="70.7071" x="280" y="572.9649">l&#234; hero-dog</text></g><g class="link" data-entity-1="ent0004" data-entity-2="ent0005" data-link-type="dependency" id="lnk19"><polygon fill="#64748B" points="365.9646,381.768,374.0442,376.1361,368.5516,377.4894,367.1983,371.9968,365.9646,381.768" style="stroke:#64748B;stroke-width:1;stroke-linejoin:miter;stroke-miterlimit:10;"/><path d="M360.6382,307.1824 C366.0242,312.4449 370.7512,318.4154 374,325.0679 C381.6063,340.6432 378.6437,347.3682 374,364.0679 C372.2953,370.1983 371.8402,372.0504 368.5516,377.4894" fill="none" style="stroke:#64748B;stroke-width:1.2;"/><text fill="#1F2937" font-family="Arial" font-size="13" lengthAdjust="spacing" textLength="162.2661" x="381.897" y="340.9649">POST /api/adoption/create</text><text fill="#1F2937" font-family="Arial" font-size="13" lengthAdjust="spacing" textLength="164.0601" x="381" y="358.6709">Idempotency-Key: UUID v4</text></g><g class="link" data-entity-1="ent0005" data-entity-2="ent0006" data-link-type="dependency" id="lnk20"><polygon fill="#64748B" points="444.8972,460.4604,439.3746,452.3056,440.6538,457.8159,435.1434,459.0951,444.8972,460.4604" style="stroke:#64748B;stroke-width:1;stroke-linejoin:miter;stroke-miterlimit:10;"/><path d="M381.9439,421.2286 C400.3349,432.6897 420.0019,444.9459 440.6538,457.8159" fill="none" style="stroke:#64748B;stroke-width:1.2;"/></g><g class="link" data-entity-1="ent0006" data-entity-2="ent0009" data-link-type="dependency" id="lnk21"><polygon fill="#64748B" points="317.3845,633.8713,326.8643,631.2002,321.2316,630.6775,321.7542,625.0449,317.3845,633.8713" style="stroke:#64748B;stroke-width:1;stroke-linejoin:miter;stroke-miterlimit:10;"/><path d="M455.9385,518.8454 C418.1327,550.2313 361.0576,597.6144 321.2316,630.6775" fill="none" style="stroke:#64748B;stroke-width:1.2;"/><text fill="#1F2937" font-family="Arial" font-size="13" lengthAdjust="spacing" textLength="54.9771" x="430" y="572.9649">rate limit</text></g><g class="link" data-entity-1="ent0006" data-entity-2="ent0011" data-link-type="dependency" id="lnk22"><polygon fill="#64748B" points="922.688,647.8537,924.2197,638.1247,921.3926,643.0245,916.4928,640.1974,922.688,647.8537" style="stroke:#64748B;stroke-width:1;stroke-linejoin:miter;stroke-miterlimit:10;"/><path d="M590.7404,518.6405 C604.5206,521.7359 618.5504,524.5074 632,526.5679 C656.6401,530.3428 834.8697,525.8431 856,539.0679 C895.5169,563.8002 913.6115,614.0173 921.3926,643.0245" fill="none" style="stroke:#64748B;stroke-width:1.2;"/><text fill="#1F2937" font-family="Arial" font-size="13" lengthAdjust="spacing" textLength="109.7461" x="905" y="572.9649">valida reCAPTCHA</text></g><g class="link" data-entity-1="ent0006" data-entity-2="ent0012" data-link-type="dependency" id="lnk23"><polygon fill="#64748B" points="728.5982,633.9021,726.6531,624.2473,725.7051,629.8241,720.1283,628.8762,728.5982,633.9021" style="stroke:#64748B;stroke-width:1;stroke-linejoin:miter;stroke-miterlimit:10;"/><path d="M597.4958,518.6007 C611.3299,524.3181 624.8784,531.0889 637,539.0679 C675.0469,564.1122 705.3177,601.0864 725.7051,629.8241" fill="none" style="stroke:#64748B;stroke-width:1.2;"/><text fill="#1F2937" font-family="Arial" font-size="13" lengthAdjust="spacing" textLength="123.2661" x="713.974" y="554.9649">CREATE candidatura</text><text fill="#1F2937" font-family="Arial" font-size="13" lengthAdjust="spacing" textLength="134.9661" x="708.124" y="572.6709">ID = Idempotency-Key</text><text fill="#1F2937" font-family="Arial" font-size="13" lengthAdjust="spacing" textLength="149.2141" x="701" y="590.377">precondi&#231;&#227;o exists: false</text></g><g class="link" data-entity-1="ent0006" data-entity-2="ent0014" data-link-type="dependency" id="lnk24"><polygon fill="#64748B" points="1056.9179,638.5545,1060.7023,629.4617,1056.7987,633.5559,1052.7045,629.6524,1056.9179,638.5545" style="stroke:#64748B;stroke-width:1;stroke-linejoin:miter;stroke-miterlimit:10;"/><path d="M589.1515,518.5945 C603.4329,521.7852 618.0234,524.5948 632,526.5679 C653.355,529.5827 1003.0142,525.7785 1020,539.0679 C1049.8902,562.4535 1056.086,603.6611 1056.7987,633.5559" fill="none" style="stroke:#64748B;stroke-width:1.2;"/><text fill="#1F2937" font-family="Arial" font-size="13" lengthAdjust="spacing" textLength="45.305" x="1053" y="572.9649">notifica</text></g><g class="link" data-entity-1="ent0008" data-entity-2="ent0012" data-link-type="dependency" id="lnk25"><polygon fill="#64748B" points="701.6493,634.0224,695.9371,625.9993,697.345,631.4781,691.8662,632.8861,701.6493,634.0224" style="stroke:#64748B;stroke-width:1;stroke-linejoin:miter;stroke-miterlimit:10;"/><path d="M171.301,518.6974 C180.4477,521.8499 189.8605,524.6216 199,526.5679 C262.3067,540.0494 430.6334,513.2783 490,539.0679 C523.1496,553.4685 515.1958,580.897 548,596.0679 C584.0469,612.7385 599.0288,592.4288 637,604.0679 C659.3991,610.9338 678.0363,620.0644 697.345,631.4781" fill="none" style="stroke:#64748B;stroke-width:1.2;"/><text fill="#1F2937" font-family="Arial" font-size="13" lengthAdjust="spacing" textLength="81.8091" x="550" y="572.9649">seleciona c&#227;o</text></g><g class="link" data-entity-1="ent0008" data-entity-2="ent0009" data-link-type="dependency" id="lnk26"><polygon fill="#64748B" points="211.0905,633.8899,205.5054,625.7778,206.8269,631.2781,201.3265,632.5996,211.0905,633.8899" style="stroke:#64748B;stroke-width:1;stroke-linejoin:miter;stroke-miterlimit:10;"/><path d="M117.7901,518.6586 C126.8182,541.5165 142.0056,573.5637 163,596.0679 C176.6585,610.7087 189.7577,620.8221 206.8269,631.2781" fill="none" style="stroke:#64748B;stroke-width:1.2;"/><text fill="#1F2937" font-family="Arial" font-size="13" lengthAdjust="spacing" textLength="107.4451" x="165" y="572.9649">atualiza hero-dog</text></g><?plantuml-src XLNRRjj647tdLqpTjmAAuLYj7GCjGDtI841g-DAy20Z6v8ZQQhd3x2xbEaK-9kX3WVv0twiVw-oIeYXPQFYqt3bpEtE6_AQoM9G86f-uzk1AycWmySfhWjH-h9KdNrk4d25ziAhWS7glCKyIjrAcGeibF62sAYpN9X-pPWlVpkBJGxWbvloeJ04Br8vwbepBYWqPV-kV9AUbJ2eeT1-Iqm9hxMTi_3iiGrqAzN5xc_zizlBL-KKFabhBZwtnX-75y79qQBnRgcnbo3auU_6oPwoaDonen3OdsqOOZoRVJy-EW9xnS3bBP-DZtUx5UpLCpqUNHs5VPJP7Zm_ewFy3TgYlnZFizsFD9gFqOdY8E1BdOZf94ioyl9vS2v6CaA79LSXz0kYwDqgIbZ0u6MkkyuL6ImsaUuK_4e0EzfxjYcpG7bRLt62KuY3dmQD8CNhA_OV71XKyOSSXdDnUft13KjhSt7hqAeFKEV8kEheA3_4tqg7erS8fLkhqkmYJPZtPG-IuRKbMnCtD6hMyRFxQ_Cdmxp_Wq2YlFkqkCgigpuN5XMeOaIILLsoUXMNZHD5XxUOc2zuKPEuyVgmRefPa-ODK9vwVasJFUSiLIJusXsGD6f8QjcrClHL7VnhmzjUviJ8hqAfKFbGVKagK8hgkriddtXXVCylEHaiHZt48lQ8iZTFhk_7FAQpF6pufmyfdIzmhOAQiTCcMvaOokP1sov5qMscLOJZ728ijTh-I4fLk2WcdmphUiLSBYH9dCZUL39a6dGk5KmZNIHK6Wv-2HE0A3AwfG22eB979bWGC2xPbhJTVhE8ae0AwKOeul9xUDGhQCfUqfe3g1hWznDlLMlpqvk-ExEHvsEjVRjkuMsfECqjIwzoyoKawzLBTq-0jFLt1_VsR2Qo7_SITvhQ7NUBTlFUDtQm4qsWSkddk8xkP279yCqtlfjtMouf8WHFu4Gwgb2b80XPKioZqktBUNRL_YhtmSJvX5EqKPL3sI6P7cZBnaG-G1DnXOfDIYRJm2NiKXoyQo98iFV2YlvJtPUYq8j-M9a82X9ASt0iTw_Y_eWSIA8FqzjlcIrE-Q8r4AIOwoUyAX7_BGUgSrQLO6OoiTBZ5hfkOuqL29e_VsEG_?></g></svg>