<svg xmlns="http://www.w3.org/2000/svg" xmlns:xlink="http://www.w3.org/1999/xlink" contentStyleType="text/css" data-diagram-type="DESCRIPTION" height="737px" preserveAspectRatio="none" style="width:1527px;height:737px;background:#FFFFFF;" version="1.1" viewBox="0 0 1527 737" width="1527px" zoomAndPan="magnify"><?plantuml 1.2026.6?><defs/><g><g class="title" data-source-line="2"><text fill="#1F2937" font-family="Arial" font-size="14" font-weight="700" lengthAdjust="spacing" textLength="212.6768" x="645.6616" y="24.9659">Arquitetura do Abrigo do Wlad</text></g><!--cluster cloudflare--><g class="cluster" data-qualified-name="cloudflare" data-source-line="23" id="ent0003"><path d="M16.5,170.0679 L90.0267,170.0679 A3.75,3.75 0 0 1 92.5267,172.5679 L99.5267,195.1358 L838.5,195.1358 A2.5,2.5 0 0 1 841,197.6358 L841,726.5679 A2.5,2.5 0 0 1 838.5,729.0679 L16.5,729.0679 A2.5,2.5 0 0 1 14,726.5679 L14,172.5679 A2.5,2.5 0 0 1 16.5,170.0679" fill="#F8FAFC" style="stroke:#CBD5E1;stroke-width:1.5;"/><line style="stroke:#CBD5E1;stroke-width:1.5;" x1="14" x2="99.5267" y1="195.1358" y2="195.1358"/><text fill="#1F2937" font-family="Arial" font-size="14" font-weight="700" lengthAdjust="spacing" textLength="72.5267" x="18" y="187.0339">Cloudflare</text></g><!--cluster app_worker--><g class="cluster" data-qualified-name="cloudflare.app_worker" data-source-line="24" id="ent0004"><path d="M205.5,200.0679 L312.7386,200.0679 A3.75,3.75 0 0 1 315.2386,202.5679 L322.2386,244.2038 L622.5,244.2038 A2.5,2.5 0 0 1 625,246.7038 L625,544.0679 A2.5,2.5 0 0 1 622.5,546.5679 L205.5,546.5679 A2.5,2.5 0 0 1 203,544.0679 L203,202.5679 A2.5,2.5 0 0 1 205.5,200.0679" fill="#F8FAFC" style="stroke:#CBD5E1;stroke-width:1.5;"/><line style="stroke:#CBD5E1;stroke-width:1.5;" x1="203" x2="322.2386" y1="244.2038" y2="244.2038"/><text fill="#1F2937" font-family="Arial" font-size="14" font-weight="700" lengthAdjust="spacing" textLength="102.6721" x="208.7832" y="217.0339">Worker do app</text><text fill="#1F2937" font-family="Arial" font-size="14" font-weight="700" lengthAdjust="spacing" textLength="106.2386" x="207" y="236.1018">abrigo-do-wlad</text></g><!--cluster admin_app--><g class="cluster" data-qualified-name="cloudflare.admin_app" data-source-line="32" id="ent0010"><path d="M635.5,219.0679 L754.2886,219.0679 A3.75,3.75 0 0 1 756.7886,221.5679 L763.7886,244.1358 L830.5,244.1358 A2.5,2.5 0 0 1 833,246.6358 L833,544.0679 A2.5,2.5 0 0 1 830.5,546.5679 L635.5,546.5679 A2.5,2.5 0 0 1 633,544.0679 L633,221.5679 A2.5,2.5 0 0 1 635.5,219.0679" fill="#F8FAFC" style="stroke:#CBD5E1;stroke-width:1.5;"/><line style="stroke:#CBD5E1;stroke-width:1.5;" x1="633" x2="763.7886" y1="244.1358" y2="244.1358"/><text fill="#1F2937" font-family="Arial" font-size="14" font-weight="700" lengthAdjust="spacing" textLength="117.7886" x="637" y="236.0339">Admin protegido</text></g><!--cluster google--><g class="cluster" data-qualified-name="google" data-source-line="40" id="ent0015"><path d="M851.5,624.0679 L902.3748,624.0679 A3.75,3.75 0 0 1 904.8748,626.5679 L911.8748,649.1358 L1198.5,649.1358 A2.5,2.5 0 0 1 1201,651.6358 L1201,726.5679 A2.5,2.5 0 0 1 1198.5,729.0679 L851.5,729.0679 A2.5,2.5 0 0 1 849,726.5679 L849,626.5679 A2.5,2.5 0 0 1 851.5,624.0679" fill="#F8FAFC" style="stroke:#CBD5E1;stroke-width:1.5;"/><line style="stroke:#CBD5E1;stroke-width:1.5;" x1="849" x2="911.8748" y1="649.1358" y2="649.1358"/><text fill="#1F2937" font-family="Arial" font-size="14" font-weight="700" lengthAdjust="spacing" textLength="49.8748" x="853" y="641.0339">Google</text></g><!--cluster cloudinary--><g class="cluster" data-qualified-name="cloudinary" data-source-line="45" id="ent0018"><path d="M1329.5,638.0679 L1406.1067,638.0679 A3.75,3.75 0 0 1 1408.6067,640.5679 L1415.6067,663.1358 L1500.5,663.1358 A2.5,2.5 0 0 1 1503,665.6358 L1503,712.5679 A2.5,2.5 0 0 1 1500.5,715.0679 L1329.5,715.0679 A2.5,2.5 0 0 1 1327,712.5679 L1327,640.5679 A2.5,2.5 0 0 1 1329.5,638.0679" fill="#F8FAFC" style="stroke:#CBD5E1;stroke-width:1.5;"/><line style="stroke:#CBD5E1;stroke-width:1.5;" x1="1327" x2="1415.6067" y1="663.1358" y2="663.1358"/><text fill="#1F2937" font-family="Arial" font-size="14" font-weight="700" lengthAdjust="spacing" textLength="75.6067" x="1331" y="655.0339">Cloudinary</text></g><!--cluster gmail--><g class="cluster" data-qualified-name="gmail" data-source-line="49" id="ent0020"><path d="M1211.5,628.5679 L1253.0473,628.5679 A3.75,3.75 0 0 1 1255.5473,631.0679 L1262.5473,653.6358 L1316.5,653.6358 A2.5,2.5 0 0 1 1319,656.1358 L1319,722.0679 A2.5,2.5 0 0 1 1316.5,724.5679 L1211.5,724.5679 A2.5,2.5 0 0 1 1209,722.0679 L1209,631.0679 A2.5,2.5 0 0 1 1211.5,628.5679" fill="#F8FAFC" style="stroke:#CBD5E1;stroke-width:1.5;"/><line style="stroke:#CBD5E1;stroke-width:1.5;" x1="1209" x2="1262.5473" y1="653.6358" y2="653.6358"/><text fill="#1F2937" font-family="Arial" font-size="14" font-weight="700" lengthAdjust="spacing" textLength="40.5473" x="1213" y="645.5339">Gmail</text></g><!--entity candidate--><g class="entity" data-qualified-name="candidate" data-source-line="20" id="ent0001"><ellipse cx="342.7808" cy="52.5679" fill="#F1F1F1" rx="8" ry="8" style="stroke:#181818;stroke-width:0.5;"/><path d="M342.7808,60.5679 L342.7808,87.5679 M329.7808,68.5679 L355.7808,68.5679 M342.7808,87.5679 L329.7808,102.5679 M342.7808,87.5679 L355.7808,102.5679" fill="none" style="stroke:#181818;stroke-width:0.5;"/><text fill="#1F2937" font-family="Arial" font-size="14" lengthAdjust="spacing" textLength="114.5616" x="285.5" y="119.0339">Pessoa candidata</text></g><!--entity staff--><g class="entity" data-qualified-name="staff" data-source-line="21" id="ent0002"><ellipse cx="709.2308" cy="52.5679" fill="#F1F1F1" rx="8" ry="8" style="stroke:#181818;stroke-width:0.5;"/><path d="M709.2308,60.5679 L709.2308,87.5679 M696.2308,68.5679 L722.2308,68.5679 M709.2308,87.5679 L696.2308,102.5679 M709.2308,87.5679 L722.2308,102.5679" fill="none" style="stroke:#181818;stroke-width:0.5;"/><text fill="#1F2937" font-family="Arial" font-size="14" lengthAdjust="spacing" textLength="112.4616" x="653" y="119.0339">Equipe do abrigo</text></g><g class="entity" data-qualified-name="GMN39" data-source-line="74" id="ent0040"><path d="M849,478.0679 L849,541.186 A0,0 0 0 0 849,541.186 L1132.5222,541.186 A0,0 0 0 0 1132.5222,541.186 L1132.5222,488.0679 L1122.5222,478.0679 L925.9058,478.0679 L546.7537,480.567 L917.9058,478.0679 L849,478.0679 A0,0 0 0 0 849,478.0679" fill="#FFF7ED" style="stroke:#FDBA74;stroke-width:0.5;"/><path d="M1122.5222,478.0679 L1122.5222,488.0679 L1132.5222,488.0679 L1122.5222,478.0679" fill="#FFF7ED" style="stroke:#FDBA74;stroke-width:0.5;"/><text fill="#1F2937" font-family="Arial" font-size="13" lengthAdjust="spacing" textLength="262.5222" x="855" y="496.9649">Uma repeti&#231;&#227;o com a mesma chave recebe</text><text fill="#1F2937" font-family="Arial" font-size="13" lengthAdjust="spacing" textLength="198.5491" x="855" y="514.6709">o ID j&#225; existente e n&#227;o cria outro</text><text fill="#1F2937" font-family="Arial" font-size="13" lengthAdjust="spacing" textLength="211.3152" x="855" y="532.377">documento nem outra notifica&#231;&#227;o.</text></g><!--entity cron--><g class="entity" data-qualified-name="cloudflare.cron" data-source-line="31" id="ent0009"><rect fill="#FFFFFF" height="58.1358" rx="2.5" ry="2.5" style="stroke:#94A3B8;stroke-width:0.5;" width="171.0314" x="22.5" y="480.5679"/><text fill="#1F2937" font-family="Arial" font-size="14" lengthAdjust="spacing" textLength="101.8356" x="32.5" y="505.5339">Worker de cron</text><text fill="#1F2937" font-family="Arial" font-size="14" lengthAdjust="spacing" textLength="151.0314" x="32.5" y="524.6018">abrigo-do-wlad-worker</text></g><!--entity kv--><g class="entity" data-qualified-name="cloudflare.kv" data-source-line="37" id="ent0014"><path d="M166.5,664.0679 C166.5,654.0679 242.1178,654.0679 242.1178,654.0679 C242.1178,654.0679 317.7355,654.0679 317.7355,664.0679 L317.7355,711.2038 C317.7355,721.2038 242.1178,721.2038 242.1178,721.2038 C242.1178,721.2038 166.5,721.2038 166.5,711.2038 L166.5,664.0679" fill="#FFFFFF" style="stroke:#94A3B8;stroke-width:0.5;"/><path d="M166.5,664.0679 C166.5,674.0679 242.1178,674.0679 242.1178,674.0679 C242.1178,674.0679 317.7355,674.0679 317.7355,664.0679" fill="none" style="stroke:#94A3B8;stroke-width:0.5;"/><text fill="#1F2937" font-family="Arial" font-size="14" lengthAdjust="spacing" textLength="88.8577" x="176.5" y="693.0339">Cloudflare KV</text><text fill="#1F2937" font-family="Arial" font-size="14" lengthAdjust="spacing" textLength="131.2355" x="176.5" y="712.1018">rate limit &#183; hero-dog</text></g><!--entity spa--><g class="entity" data-qualified-name="cloudflare.app_worker.spa" data-source-line="25" id="ent0005"><rect fill="#FFFFFF" height="58.1358" rx="2.5" ry="2.5" style="stroke:#94A3B8;stroke-width:0.5;" width="101.6337" x="292" y="249.0679"/><text fill="#1F2937" font-family="Arial" font-size="14" lengthAdjust="spacing" textLength="64.9738" x="302" y="274.0339">SPA React</text><text fill="#1F2937" font-family="Arial" font-size="14" lengthAdjust="spacing" textLength="81.6337" x="302" y="293.1018">Static Assets</text></g><!--entity router--><g class="entity" data-qualified-name="cloudflare.app_worker.router" data-source-line="26" id="ent0006"><rect fill="#FFFFFF" height="39.0679" rx="2.5" ry="2.5" style="stroke:#94A3B8;stroke-width:0.5;" width="122.6896" x="290.5" y="382.0679"/><text fill="#1F2937" font-family="Arial" font-size="14" lengthAdjust="spacing" textLength="102.6896" x="300.5" y="407.0339">Roteador /api/*</text></g><!--entity adoption--><g class="entity" data-qualified-name="cloudflare.app_worker.adoption" data-source-line="27" id="ent0007"><rect fill="#FFFFFF" height="58.1358" rx="2.5" ry="2.5" style="stroke:#94A3B8;stroke-width:0.5;" width="253.5051" x="363" y="480.5679"/><text fill="#1F2937" font-family="Arial" font-size="14" lengthAdjust="spacing" textLength="88.0877" x="373" y="505.5339">Candidaturas</text><text fill="#1F2937" font-family="Arial" font-size="14" lengthAdjust="spacing" textLength="233.5051" x="373" y="524.6018">valida&#231;&#227;o &#183; sanitiza&#231;&#227;o &#183; criptografia</text></g><!--entity hero_api--><g class="entity" data-qualified-name="cloudflare.app_worker.hero_api" data-source-line="28" id="ent0008"><rect fill="#FFFFFF" height="58.1358" rx="2.5" ry="2.5" style="stroke:#94A3B8;stroke-width:0.5;" width="132.5876" x="211.5" y="480.5679"/><text fill="#1F2937" font-family="Arial" font-size="14" lengthAdjust="spacing" textLength="78.5677" x="221.5" y="505.5339">Consulta do</text><text fill="#1F2937" font-family="Arial" font-size="14" lengthAdjust="spacing" textLength="112.5876" x="221.5" y="524.6018">c&#227;o em destaque</text></g><!--entity access--><g class="entity" data-qualified-name="cloudflare.admin_app.access" data-source-line="33" id="ent0011"><rect fill="#FFFFFF" height="58.1358" rx="2.5" ry="2.5" style="stroke:#94A3B8;stroke-width:0.5;" width="135.4855" x="641.5" y="249.0679"/><text fill="#1F2937" font-family="Arial" font-size="14" lengthAdjust="spacing" textLength="115.4855" x="651.5" y="274.0339">Cloudflare Access</text><text fill="#1F2937" font-family="Arial" font-size="14" lengthAdjust="spacing" textLength="68.8237" x="651.5" y="293.1018">JWT + MFA</text></g><!--entity admin_spa--><g class="entity" data-qualified-name="cloudflare.admin_app.admin_spa" data-source-line="34" id="ent0012"><rect fill="#FFFFFF" height="39.0679" rx="2.5" ry="2.5" style="stroke:#94A3B8;stroke-width:0.5;" width="143.1996" x="641.5" y="382.0679"/><text fill="#1F2937" font-family="Arial" font-size="14" lengthAdjust="spacing" textLength="123.1996" x="651.5" y="407.0339">SPA administrativa</text></g><!--entity admin_worker--><g class="entity" data-qualified-name="cloudflare.admin_app.admin_worker" data-source-line="35" id="ent0013"><rect fill="#FFFFFF" height="58.1358" rx="2.5" ry="2.5" style="stroke:#94A3B8;stroke-width:0.5;" width="152.4535" x="673" y="480.5679"/><text fill="#1F2937" font-family="Arial" font-size="14" lengthAdjust="spacing" textLength="93.8836" x="683" y="505.5339">Worker admin</text><text fill="#1F2937" font-family="Arial" font-size="14" lengthAdjust="spacing" textLength="132.4535" x="683" y="524.6018">RBAC &#183; CRUD &#183; m&#237;dia</text></g><!--entity recaptcha--><g class="entity" data-qualified-name="google.recaptcha" data-source-line="41" id="ent0016"><rect fill="#FFFFFF" height="39.0679" rx="2.5" ry="2.5" style="stroke:#94A3B8;stroke-width:0.5;" width="114.6536" x="1077.5" y="668.0679"/><text fill="#1F2937" font-family="Arial" font-size="14" lengthAdjust="spacing" textLength="94.6536" x="1087.5" y="693.0339">reCAPTCHA v3</text></g><!--entity firestore--><g class="entity" data-qualified-name="google.firestore" data-source-line="42" id="ent0017"><path d="M857,664.0679 C857,654.0679 957.8177,654.0679 957.8177,654.0679 C957.8177,654.0679 1058.6353,654.0679 1058.6353,664.0679 L1058.6353,711.2038 C1058.6353,721.2038 957.8177,721.2038 957.8177,721.2038 C957.8177,721.2038 857,721.2038 857,711.2038 L857,664.0679" fill="#FFFFFF" style="stroke:#94A3B8;stroke-width:0.5;"/><path d="M857,664.0679 C857,674.0679 957.8177,674.0679 957.8177,674.0679 C957.8177,674.0679 1058.6353,674.0679 1058.6353,664.0679" fill="none" style="stroke:#94A3B8;stroke-width:0.5;"/><text fill="#1F2937" font-family="Arial" font-size="14" lengthAdjust="spacing" textLength="58.4638" x="867" y="693.0339">Firestore</text><text fill="#1F2937" font-family="Arial" font-size="14" lengthAdjust="spacing" textLength="181.6353" x="867" y="712.1018">dogs &#183; adoption_application</text></g><!--entity images--><g class="entity" data-qualified-name="cloudinary.images" data-source-line="46" id="ent0019"><rect fill="#FFFFFF" height="39.0679" rx="2.5" ry="2.5" style="stroke:#94A3B8;stroke-width:0.5;" width="159.9995" x="1335" y="668.0679"/><text fill="#1F2937" font-family="Arial" font-size="14" lengthAdjust="spacing" textLength="139.9995" x="1345" y="693.0339">Imagens dos animais</text></g><!--entity email--><g class="entity" data-qualified-name="gmail.email" data-source-line="50" id="ent0021"><rect fill="#FFFFFF" height="58.1358" rx="2.5" ry="2.5" style="stroke:#94A3B8;stroke-width:0.5;" width="93.8217" x="1217" y="658.5679"/><text fill="#1F2937" font-family="Arial" font-size="14" lengthAdjust="spacing" textLength="73.8217" x="1227" y="683.5339">Notifica&#231;&#227;o</text><text fill="#1F2937" font-family="Arial" font-size="14" lengthAdjust="spacing" textLength="67.0737" x="1227" y="702.6018">por e-mail</text></g><g class="link" data-entity-1="ent0001" data-entity-2="ent0005" data-link-type="dependency" id="lnk22"><polygon fill="#64748B" points="343,248.7867,347,239.7867,343,243.7867,339,239.7867,343,248.7867" style="stroke:#64748B;stroke-width:1;stroke-linejoin:miter;stroke-miterlimit:10;"/><path d="M343,123.5232 C343,160.6563 343,210.6779 343,243.7867" fill="none" style="stroke:#64748B;stroke-width:1.2;"/><text fill="#1F2937" font-family="Arial" font-size="13" lengthAdjust="spacing" textLength="196.0661" x="345" y="156.9649">navega e preenche o formul&#225;rio</text></g><g class="link" data-entity-1="ent0002" data-entity-2="ent0011" data-link-type="dependency" id="lnk23"><polygon fill="#64748B" points="709,248.7867,713,239.7867,709,243.7867,705,239.7867,709,248.7867" style="stroke:#64748B;stroke-width:1;stroke-linejoin:miter;stroke-miterlimit:10;"/><path d="M709,123.5232 C709,160.6563 709,210.6779 709,243.7867" fill="none" style="stroke:#64748B;stroke-width:1.2;"/><text fill="#1F2937" font-family="Arial" font-size="13" lengthAdjust="spacing" textLength="56.966" x="711" y="156.9649">autentica</text></g><g class="link" data-entity-1="ent0011" data-entity-2="ent0012" data-link-type="dependency" id="lnk24"><polygon fill="#64748B" points="712.3881,381.9824,716.0898,372.8557,712.2236,376.9851,708.0942,373.1189,712.3881,381.9824" style="stroke:#64748B;stroke-width:1;stroke-linejoin:miter;stroke-miterlimit:10;"/><path d="M709.9277,307.2478 C710.6847,330.2414 711.5682,357.0757 712.2236,376.9851" fill="none" style="stroke:#64748B;stroke-width:1.2;"/><text fill="#1F2937" font-family="Arial" font-size="13" lengthAdjust="spacing" textLength="134.0561" x="714" y="349.9649">identidade autorizada</text></g><g class="link" data-entity-1="ent0012" data-entity-2="ent0013" data-link-type="dependency" id="lnk25"><polygon fill="#64748B" points="739.3667,480.2032,740.26,470.395,737.7588,475.4688,732.6849,472.9676,739.3667,480.2032" style="stroke:#64748B;stroke-width:1;stroke-linejoin:miter;stroke-miterlimit:10;"/><path d="M719.4361,421.5186 C724.9776,437.8352 731.4469,456.8837 737.7588,475.4688" fill="none" style="stroke:#64748B;stroke-width:1.2;"/><text fill="#1F2937" font-family="Arial" font-size="13" lengthAdjust="spacing" textLength="162.9681" x="735" y="454.9649">/api/session &#183; /api/admin/*</text></g><g class="link" data-entity-1="ent0013" data-entity-2="ent0017" data-link-type="dependency" id="lnk26"><polygon fill="#64748B" points="979.1863,653.9408,987.0131,647.9624,981.5846,649.5535,979.9934,644.1251,979.1863,653.9408" style="stroke:#64748B;stroke-width:1;stroke-linejoin:miter;stroke-miterlimit:10;"/><path d="M813.3787,538.6877 C822.1982,541.7544 831.2346,544.5058 840,546.5679 C855.8489,550.2965 974.9892,547.0741 986,559.0679 C1009.526,584.6941 997.1706,621.0419 981.5846,649.5535" fill="none" style="stroke:#64748B;stroke-width:1.2;"/><text fill="#1F2937" font-family="Arial" font-size="13" lengthAdjust="spacing" textLength="99.2031" x="1022.567" y="583.9649">conta de servi&#231;o</text><text fill="#1F2937" font-family="Arial" font-size="13" lengthAdjust="spacing" textLength="142.3371" x="1001" y="601.6709">CRUD + descriptografia</text></g><g class="link" data-entity-1="ent0013" data-entity-2="ent0019" data-link-type="dependency" id="lnk27"><polygon fill="#64748B" points="1391.007,667.9153,1386.1756,659.3329,1386.9961,664.9299,1381.3991,665.7504,1391.007,667.9153" style="stroke:#64748B;stroke-width:1;stroke-linejoin:miter;stroke-miterlimit:10;"/><path d="M812.2965,538.7185 C821.4439,541.8679 830.858,544.633 840,546.5679 C974.4669,575.0277 1014.2661,531.9003 1149,559.0679 C1229.9244,575.3854 1249.6664,586.1576 1323,624.0679 C1347.3571,636.6595 1368.9885,651.5268 1386.9961,664.9299" fill="none" style="stroke:#64748B;stroke-width:1.2;"/><text fill="#1F2937" font-family="Arial" font-size="13" lengthAdjust="spacing" textLength="218.2312" x="1308" y="592.9649">upload assinado &#183; exclus&#227;o validada</text></g><g class="link" data-entity-1="ent0005" data-entity-2="ent0006" data-link-type="dependency" id="lnk28"><polygon fill="#64748B" points="290.0479,388.5119,283.345,381.2959,285.4504,386.5463,280.2,388.6518,290.0479,388.5119" style="stroke:#64748B;stroke-width:1;stroke-linejoin:miter;stroke-miterlimit:10;"/><path d="M291.8811,295.645 C278.5307,302.5582 265.7302,312.095 258,325.0679 C249.1273,339.9582 248.2099,349.7641 258,364.0679 C265.7126,375.3364 272.8544,381.1609 285.4504,386.5463" fill="none" style="stroke:#64748B;stroke-width:1.2;"/><text fill="#1F2937" font-family="Arial" font-size="13" lengthAdjust="spacing" textLength="112.2551" x="260" y="349.9649">GET /api/hero-dog</text></g><g class="link" data-entity-1="ent0006" data-entity-2="ent0008" data-link-type="dependency" id="lnk29"><polygon fill="#64748B" points="297.8018,480.2032,306.2334,475.1133,300.6639,476.1034,299.6737,470.5339,297.8018,480.2032" style="stroke:#64748B;stroke-width:1;stroke-linejoin:miter;stroke-miterlimit:10;"/><path d="M338.7703,421.5186 C327.3795,437.8352 313.6384,457.5184 300.6639,476.1034" fill="none" style="stroke:#64748B;stroke-width:1.2;"/></g><g class="link" data-entity-1="ent0008" data-entity-2="ent0014" data-link-type="dependency" id="lnk30"><polygon fill="#64748B" points="236.9107,653.9945,239.9155,644.6152,236.3708,649.0237,231.9623,645.479,236.9107,653.9945" style="stroke:#64748B;stroke-width:1;stroke-linejoin:miter;stroke-miterlimit:10;"/><path d="M253.3544,538.7053 C249.1133,545.0181 245.3268,551.9629 243,559.0679 C232.8385,590.0972 233.5147,622.726 236.3708,649.0237" fill="none" style="stroke:#64748B;stroke-width:1.2;"/><text fill="#1F2937" font-family="Arial" font-size="13" lengthAdjust="spacing" textLength="70.7071" x="245" y="592.9649">l&#234; hero-dog</text></g><g class="link" data-entity-1="ent0005" data-entity-2="ent0006" data-link-type="dependency" id="lnk31"><polygon fill="#64748B" points="365.9646,381.768,374.0442,376.1361,368.5516,377.4894,367.1983,371.9968,365.9646,381.768" style="stroke:#64748B;stroke-width:1;stroke-linejoin:miter;stroke-miterlimit:10;"/><path d="M365.6586,307.1743 C369.093,312.8055 372.1148,318.8971 374,325.0679 C379.0644,341.6449 378.6437,347.3682 374,364.0679 C372.2953,370.1983 371.8402,372.0504 368.5516,377.4894" fill="none" style="stroke:#64748B;stroke-width:1.2;"/><text fill="#1F2937" font-family="Arial" font-size="13" lengthAdjust="spacing" textLength="162.2661" x="380.897" y="340.9649">POST /api/adoption/create</text><text fill="#1F2937" font-family="Arial" font-size="13" lengthAdjust="spacing" textLength="164.0601" x="380" y="358.6709">Idempotency-Key: UUID v4</text></g><g class="link" data-entity-1="ent0006" data-entity-2="ent0007" data-link-type="dependency" id="lnk32"><polygon fill="#64748B" points="453.4345,480.4814,448.7337,471.8268,449.4693,477.4356,443.8605,478.1712,453.4345,480.4814" style="stroke:#64748B;stroke-width:1;stroke-linejoin:miter;stroke-miterlimit:10;"/><path d="M376.354,421.2746 C397.71,437.6785 425.1006,458.7176 449.4693,477.4356" fill="none" style="stroke:#64748B;stroke-width:1.2;"/></g><g class="link" data-entity-1="ent0007" data-entity-2="ent0014" data-link-type="dependency" id="lnk33"><polygon fill="#64748B" points="283.0857,653.9037,292.4227,650.7702,286.7712,650.5249,287.0166,644.8733,283.0857,653.9037" style="stroke:#64748B;stroke-width:1;stroke-linejoin:miter;stroke-miterlimit:10;"/><path d="M369.1581,538.7623 C358.5614,544.3505 348.6111,551.0459 340,559.0679 C320.0117,577.6888 332.4231,593.5202 317,616.0679 C307.617,629.7853 298.8389,639.4613 286.7712,650.5249" fill="none" style="stroke:#64748B;stroke-width:1.2;"/><text fill="#1F2937" font-family="Arial" font-size="13" lengthAdjust="spacing" textLength="54.9771" x="342" y="592.9649">rate limit</text></g><g class="link" data-entity-1="ent0007" data-entity-2="ent0016" data-link-type="dependency" id="lnk34"><polygon fill="#64748B" points="1121.4013,667.9646,1118.8298,658.4574,1118.2481,664.0843,1112.6212,663.5026,1121.4013,667.9646" style="stroke:#64748B;stroke-width:1;stroke-linejoin:miter;stroke-miterlimit:10;"/><path d="M589.7803,538.5725 C602.8985,541.6167 616.2211,544.3933 629,546.5679 C661.7565,552.1423 751.2591,539.3452 778,559.0679 C799.9851,575.2829 778.5872,600.4495 801,616.0679 C825.3507,633.0368 1040.5522,612.7755 1068,624.0679 C1090.0663,633.1463 1106.123,649.1633 1118.2481,664.0843" fill="none" style="stroke:#64748B;stroke-width:1.2;"/><text fill="#1F2937" font-family="Arial" font-size="13" lengthAdjust="spacing" textLength="109.7461" x="803" y="592.9649">valida reCAPTCHA</text></g><g class="link" data-entity-1="ent0007" data-entity-2="ent0017" data-link-type="dependency" id="lnk35"><polygon fill="#64748B" points="910.9364,654.0526,905.2778,645.9915,906.6492,651.4796,901.1611,652.8509,910.9364,654.0526" style="stroke:#64748B;stroke-width:1;stroke-linejoin:miter;stroke-miterlimit:10;"/><path d="M575.0776,538.6872 C584.9418,544.3661 594.2333,551.1036 602,559.0679 C621.0725,578.6258 602.6372,600.3779 625,616.0679 C645.0237,630.1168 821.4307,617.5251 845,624.0679 C868.0061,630.4544 887.14,639.771 906.6492,651.4796" fill="none" style="stroke:#64748B;stroke-width:1.2;"/><text fill="#1F2937" font-family="Arial" font-size="13" lengthAdjust="spacing" textLength="123.2661" x="639.974" y="574.9649">CREATE candidatura</text><text fill="#1F2937" font-family="Arial" font-size="13" lengthAdjust="spacing" textLength="134.9661" x="634.124" y="592.6709">ID = Idempotency-Key</text><text fill="#1F2937" font-family="Arial" font-size="13" lengthAdjust="spacing" textLength="149.2141" x="627" y="610.377">precondi&#231;&#227;o exists: false</text></g><g class="link" data-entity-1="ent0007" data-entity-2="ent0021" data-link-type="dependency" id="lnk36"><polygon fill="#64748B" points="1245.3129,658.2734,1242.8643,648.7338,1242.21,654.3527,1236.5912,653.6984,1245.3129,658.2734" style="stroke:#64748B;stroke-width:1;stroke-linejoin:miter;stroke-miterlimit:10;"/><path d="M587.8103,538.6286 C601.5489,541.7693 615.5639,544.5561 629,546.5679 C660.3477,551.2617 888.6983,539.9752 914,559.0679 C935.3158,575.1528 911.5687,600.1372 933,616.0679 C957.2656,634.1055 1177.4147,611.6895 1205,624.0679 C1221.2005,631.3376 1231.9855,641.433 1242.21,654.3527" fill="none" style="stroke:#64748B;stroke-width:1.2;"/><text fill="#1F2937" font-family="Arial" font-size="13" lengthAdjust="spacing" textLength="45.305" x="935" y="592.9649">notifica</text></g><g class="link" data-entity-1="ent0009" data-entity-2="ent0017" data-link-type="dependency" id="lnk37"><polygon fill="#64748B" points="911.2675,654.0098,905.6258,645.9369,906.9857,651.4279,901.4948,652.7878,911.2675,654.0098" style="stroke:#64748B;stroke-width:1;stroke-linejoin:miter;stroke-miterlimit:10;"/><path d="M171.8363,538.7032 C180.8205,541.8104 190.046,544.5682 199,546.5679 C220.6221,551.3967 380.4423,545.5566 398,559.0679 C419.1628,575.3535 395.4837,600.2523 417,616.0679 C436.1621,630.1531 822.0294,617.9092 845,624.0679 C868.1699,630.2801 887.4302,639.636 906.9857,651.4279" fill="none" style="stroke:#64748B;stroke-width:1.2;"/><text fill="#1F2937" font-family="Arial" font-size="13" lengthAdjust="spacing" textLength="81.8091" x="466.8271" y="583.9649">seleciona c&#227;o</text><text fill="#1F2937" font-family="Arial" font-size="13" lengthAdjust="spacing" textLength="177.4632" x="419" y="601.6709">cleanup LGPD com kill switch</text></g><g class="link" data-entity-1="ent0009" data-entity-2="ent0014" data-link-type="dependency" id="lnk38"><polygon fill="#64748B" points="166.3543,657.3196,160.5866,649.3363,162.0325,654.8052,156.5636,656.2511,166.3543,657.3196" style="stroke:#64748B;stroke-width:1;stroke-linejoin:miter;stroke-miterlimit:10;"/><path d="M104.6217,538.8707 C103.3734,561.5522 105.0478,593.2477 120,616.0679 C131.3288,633.358 144.1491,644.4007 162.0325,654.8052" fill="none" style="stroke:#64748B;stroke-width:1.2;"/><text fill="#1F2937" font-family="Arial" font-size="13" lengthAdjust="spacing" textLength="107.4451" x="122" y="592.9649">atualiza hero-dog</text></g><?plantuml-src XLPDRnit4BtlhvYwjmIAuTYj7GCjiFfodRIfOSlrHK0mvevMh7R93ScLunJvCK4F0Ghqt7lrnpeaLwkLB3I-c4k--NfyCzGtbS6yH2ZmKTSER4aE5IPEke8WDUzhwSZL1Y7JaDuRcMk_kYimInAxaAf2WoNSerZaHjSg6-X26_Xs7Fuw23l7J3z8bSCC2qkT4w7BIYjIxiOzSan3WZF8YouaendMXHjhvTvYwVEIMEm_R-8VZL--EZxjG59Zz4Dp-Ft9wSbPV_TmCfTYeSXQE7hnidDOSMsOKr-RZ4pZOT0VVZSwsWDwmiFPE1qFzbMxvU_LINhSFziB-ogp6JgyHql_xx15VTMVqcxRrtZOJqzFTX5x_9oEXac2ml7dmHKJgH44gapws0U0jlsYDMh4-gh8Amg3jWBAEfpDagIX50u6XQwpMO66efFs4_v805hOdJOBCi5NLKrLTDZBTE-1nHeiUV_TGqHvIzYm30StLobS4wSrLJSEdHIGMalEnemgtCLVCmUiQ0E7MCd3Pm76T3WokyX1KpGtaPsg9HRyiVgo-bF3l_-0HIMT_BZP44PMJkS6Pp9ona4g9xLwubOhovhtZJbLmbkJRmGcxtqTYPgJqUyuExRyb2HRnckkYEDfjKjMBv8KsJOXTCjocfLIGMMu_5nckacHzpXIzPJMpTr1AWHhOgfUtqtWEVmoJgDjsDrt6y6hjCxmRIon4sZFRJJrXFEfkkwd0y_buFfswF-NgxypsVKGwmkyGDiPMyc--MsgE3118Klfl1FF9XEK1pUBPVAfez0BhNbWXPCyB0CHdVmC3TAhoU2d59R7KIeai79YZbi9ZANX2zI6feeZMHzsVVsUta8AzElWORR6RcKIIf0ApUEcLyBdRaQN9UELPVKmAKgMAAFKfT-tszNnOH6BywjTJs-rapFEB4XugYhk2Ugr9kHNtbtR-z3h_UWx2iv1uP9o168z4Ian9z0mqwQiYzLd8tKI9a70Hvcm2NABAMvFJ9gjSBhM1GDaviypP6qpLXjkhep1BMA3RqR1UMnXoywOMyzv-0wOmsV95jORjyIpfU0N1tqRMJ9BkVh2zGVHFVUTs6tbfsuYqUoZhWgD6NDb-QAoC0JeWoXgwtiwZWikO9rwd35iTZ6Qn4JNmaoQ8uzgMt-z2BkB9TiLgxzQBITFtLxzUZDP4n2LToWCyRLDrML6VEbCltZilQ77SxYzlHp2ygGRk9rMwyKcyAQTjW_RLc1CB1VQTjb6TfaVN8_IoQXzKNYuSe93-05sicH1SW3Dg3XYwGEF57lU_0hPSX-awbNP29erQ_P4jbIGO1j-t8BWHK6ewWf-lhWQ-hw0XImAi0-IQzfu21HmdbpWH-nSW7zBWOVlt86UTOVzRUbvgCWrYNlF22LPtcUobk6N4jqJGpLmvR-lFiVYMFx4BQM24VzG0huTe_sSqQ8k-LI3ugV2xs9RQuZn8Y6LXTSz-Gy0?></g></svg>